<svg height="83" overflow="hidden" width="207" xmlns="http://www.w3.org/2000/svg" xmlns:xlink="http://www.w3.org/1999/xlink"><g clip-path="url(#a)" fill-rule="evenodd" transform="translate(-955 -415)"><path d="m966.556 459.287-.103 11.643c0 .621-.515 1.139-1.133 1.139h-8.187c-.618 0-1.133-.518-1.133-1.139v-29.807c0-.621.515-1.138 1.133-1.138h8.136c.618 0 1.133.517 1.133 1.138v10.712l8.291-11.385c.205-.31.514-.465.875-.465h9.681c.618 0 1.133.517 1.133 1.138 0 .259-.103.518-.258.725l-10.504 12.833 11.277 15.576c.36.518.257 1.242-.258 1.605-.154.155-.412.207-.618.207h-10.35c-.412 0-.721-.207-.927-.518zm47.064.776c0 2.07-.36 3.881-1.13 5.485-.72 1.605-1.7 2.95-2.94 4.037-1.28 1.138-2.72 1.966-4.32 2.535-1.65.569-3.4.88-5.2.88-1.753 0-3.452-.311-5.1-.88s-3.038-1.397-4.274-2.535c-1.236-1.087-2.214-2.432-2.987-4.037-.721-1.604-1.081-3.415-1.081-5.485 0-2.018.36-3.829 1.081-5.434.773-1.552 1.751-2.898 2.987-3.984 1.236-1.087 2.626-1.915 4.274-2.484s3.347-.828 5.1-.828c1.8 0 3.55.259 5.2.828 1.6.569 3.04 1.397 4.32 2.484 1.24 1.086 2.22 2.432 2.94 3.984.77 1.605 1.13 3.416 1.13 5.434zm-13.59-3.933c-1.135 0-2.062.362-2.731 1.19-.721.777-1.082 1.708-1.082 2.743 0 1.138.361 2.07 1.082 2.846s1.648 1.19 2.781 1.19c1.18 0 2.11-.414 2.83-1.19s1.08-1.708 1.08-2.846c0-1.035-.41-1.966-1.13-2.743-.72-.828-1.65-1.19-2.83-1.19zm17.61-7.866h7.88c.67 0 1.13.466 1.13 1.087v1.501h.1c.62-.88 1.5-1.604 2.68-2.277 1.19-.621 2.58-.983 4.07-.983 1.65 0 3.04.31 4.12.931 1.13.569 2.01 1.345 2.63 2.329.66.931 1.08 2.018 1.33 3.208.26 1.139.42 2.329.42 3.519v13.351c0 .621-.52 1.139-1.14 1.139h-8.18c-.62 0-1.14-.518-1.14-1.139v-11.54c0-1.19-.2-2.07-.56-2.535-.36-.466-.93-.725-1.7-.725-.67 0-1.24.259-1.7.828-.41.569-.62 1.345-.62 2.432v11.54c0 .621-.52 1.139-1.13 1.139h-8.19c-.62 0-1.08-.518-1.08-1.139v-21.579c0-.621.46-1.087 1.08-1.087zm45.21-3.57c-.36-.104-.72-.104-1.08-.104-1.03 0-1.75.311-2.16.932s-.62 1.449-.62 2.38v.362h3.91c.62 0 1.08.466 1.08 1.087v5.227c0 .621-.46 1.138-1.08 1.138h-3.91v15.214c0 .621-.46 1.139-1.13 1.139h-8.09c-.62 0-1.13-.518-1.13-1.139v-15.214h-2.94c-.61 0-1.13-.517-1.13-1.138v-5.227c0-.621.52-1.087 1.13-1.087h2.94v-.569c0-1.501.2-2.898.51-4.243.36-1.397.93-2.588 1.81-3.623.82-1.035 1.95-1.863 3.39-2.483 1.45-.57 3.2-.88 5.36-.88.72 0 1.49.051 2.42.155.41.052.88.103 1.39.259.57.155.93.621.88 1.19l-.52 5.848c-.05.465-.46.827-.93.776-.05 0-.1 0-.1 0zm28.53 27.375h-7.88c-.62 0-1.13-.518-1.13-1.139v-1.501h-.05c-.62.88-1.5 1.656-2.73 2.329-1.19.621-2.53.931-4.07.931-1.65 0-3.04-.258-4.12-.879-1.08-.569-1.96-1.346-2.58-2.277-.66-.983-1.13-2.018-1.39-3.26-.25-1.191-.36-2.381-.36-3.519v-13.403c0-.621.52-1.087 1.14-1.087h8.18c.62 0 1.14.466 1.14 1.087v11.488c0 1.19.15 2.07.56 2.536.36.466.93.724 1.7.724.67 0 1.24-.258 1.65-.828.46-.569.67-1.397.67-2.432v-11.488c0-.621.52-1.087 1.13-1.087h8.14c.62 0 1.13.466 1.13 1.087v21.579c0 .621-.51 1.139-1.13 1.139zm4.43-7.607 8.55-8.487h-7.52c-.62 0-1.14-.518-1.14-1.139v-5.485c0-.621.52-1.087 1.14-1.087h19.31c.62 0 1.13.466 1.13 1.087v5.227c0 .258-.1.569-.36.776l-9.22 8.952h8.76c.62 0 1.08.518 1.08 1.139v5.485c0 .621-.46 1.139-1.08 1.139h-19.83c-.62 0-1.13-.518-1.13-1.139v-5.692c0-.311.1-.569.31-.776zm25.95-16.198h8.14c.62 0 1.13.466 1.13 1.087v21.579c0 .621-.51 1.139-1.13 1.139h-8.14c-.62 0-1.13-.518-1.13-1.139v-21.579c0-.621.51-1.087 1.13-1.087zm-1.34-6.934c0-.724.16-1.397.47-2.018.25-.673.67-1.242 1.13-1.708.51-.517 1.08-.88 1.75-1.19.67-.259 1.39-.414 2.11-.414s1.39.155 2.06.414c.62.31 1.19.673 1.65 1.19.51.466.93 1.035 1.18 1.708.31.621.41 1.294.41 2.018 0 .776-.1 1.501-.41 2.122-.25.672-.67 1.19-1.18 1.707-.46.466-1.03.828-1.65 1.087-.67.259-1.34.414-2.06.414s-1.44-.155-2.11-.414-1.24-.621-1.75-1.087c-.46-.517-.88-1.035-1.13-1.707-.31-.621-.47-1.346-.47-2.122zm40.58 18.733c0 2.07-.36 3.881-1.08 5.485-.72 1.605-1.75 2.95-2.99 4.037-1.23 1.138-2.68 1.966-4.32 2.535-1.65.569-3.35.88-5.15.88-1.75 0-3.45-.311-5.1-.88s-3.09-1.397-4.33-2.535c-1.23-1.087-2.21-2.432-2.93-4.037-.72-1.604-1.08-3.415-1.08-5.485 0-2.018.36-3.829 1.08-5.434.72-1.552 1.7-2.898 2.93-3.984 1.24-1.087 2.68-1.915 4.33-2.484s3.35-.828 5.1-.828c1.8 0 3.5.259 5.15.828 1.64.569 3.09 1.397 4.32 2.484 1.24 1.086 2.27 2.432 2.99 3.984.72 1.605 1.08 3.416 1.08 5.434zm-13.54-3.933c-1.14 0-2.06.362-2.78 1.19-.67.777-1.03 1.708-1.03 2.743 0 1.138.36 2.07 1.08 2.846s1.65 1.19 2.78 1.19 2.06-.414 2.78-1.19 1.08-1.708 1.08-2.846c0-1.035-.36-1.966-1.08-2.743-.77-.828-1.7-1.19-2.83-1.19z" fill="#44b78b"/></g></svg>