<svg width="180" height="101" viewBox="0 0 180 101" fill="none" xmlns="http://www.w3.org/2000/svg">
<path d="M0 0H180V100.84H0V0Z" fill="#F3F3F3"/>
<path fill-rule="evenodd" clip-rule="evenodd" d="M178.992 1.0084H1.0084V99.8319H178.992V1.0084ZM0 0V100.84H180V0H0Z" fill="#E1E1E1"/>
<path d="M112.941 0H180V100.84H112.941V0Z" fill="white"/>
<path fill-rule="evenodd" clip-rule="evenodd" d="M178.992 1.0084H113.95V99.8319H178.992V1.0084ZM112.941 0V100.84H180V0H112.941Z" fill="#E1E1E1"/>
<path d="M0 0H19.1597V100.84H0V0Z" fill="white"/>
<path fill-rule="evenodd" clip-rule="evenodd" d="M17.1429 2.01681H2.01681V98.8235H17.1429V2.01681ZM0 0V100.84H19.1597V0H0Z" fill="#44B78B"/>
<path d="M27.7312 8.57129H104.37V100.84H27.7312V8.57129Z" fill="white"/>
<path fill-rule="evenodd" clip-rule="evenodd" d="M103.361 9.57969H28.7396V99.8318H103.361V9.57969ZM27.7312 8.57129V100.84H104.37V8.57129H27.7312Z" fill="#E1E1E1"/>
<path d="M5.54614 8.06641H13.1092V19.663H5.54614V8.06641Z" fill="#E1E1E1"/>
<path fill-rule="evenodd" clip-rule="evenodd" d="M5.29395 7.81445H13.3612V19.9153H5.29395V7.81445ZM5.79815 8.31865V19.4111H12.857V8.31865H5.79815Z" fill="#E1E1E1"/>
<path d="M5.54614 25.209H13.1092V36.8056H5.54614V25.209Z" fill="#E1E1E1"/>
<path d="M5.54614 42.3525H13.1092V53.9492H5.54614V42.3525Z" fill="#E1E1E1"/>
<path d="M5.54614 59.4951H13.1092V71.0918H5.54614V59.4951Z" fill="#E1E1E1"/>
<path d="M118.992 21.1768H133.614V24.7062H118.992V21.1768Z" fill="#E1E1E1"/>
<path d="M118.992 9.58008H133.614V13.1095H118.992V9.58008Z" fill="#E1E1E1"/>
<path d="M137.143 9.58008H152.269V13.1095H137.143V9.58008Z" fill="#E1E1E1"/>
<path d="M155.798 9.58008H170.42V13.1095H155.798V9.58008Z" fill="#E1E1E1"/>
<path d="M118.992 28.2354H133.614V32.269H118.992V28.2354Z" fill="#E1E1E1"/>
<path d="M118.992 35.7979H133.614V39.3273H118.992V35.7979Z" fill="#E1E1E1"/>
<path d="M118.992 42.3525H133.614V46.3862H118.992V42.3525Z" fill="#E1E1E1"/>
<path d="M118.992 49.916H133.614V53.4454H118.992V49.916Z" fill="#E1E1E1"/>
<path d="M118.992 56.9746H133.614V60.504H118.992V56.9746Z" fill="#E1E1E1"/>
<path d="M118.992 64.0332H133.614V68.0668H118.992V64.0332Z" fill="#E1E1E1"/>
<path d="M141.177 21.1768H172.941V24.7062H141.177V21.1768Z" fill="#E1E1E1"/>
<path d="M141.177 28.2354H172.941V32.269H141.177V28.2354Z" fill="#E1E1E1"/>
<path d="M141.177 35.7979H172.941V39.3273H141.177V35.7979Z" fill="#E1E1E1"/>
<path d="M141.177 42.3525H172.941V46.3862H141.177V42.3525Z" fill="#E1E1E1"/>
<path d="M141.177 49.916H172.941V53.4454H141.177V49.916Z" fill="#E1E1E1"/>
<path d="M141.177 56.9746H172.941V60.504H141.177V56.9746Z" fill="#E1E1E1"/>
<path d="M141.177 64.0332H172.941V68.0668H141.177V64.0332Z" fill="#E1E1E1"/>
</svg>
